<?xml version="1.0" encoding="utf-8"?>
<svg xmlns="http://www.w3.org/2000/svg" style="margin: auto; background: rgba(0, 0, 0, 0) none repeat scroll 0% 0%; display: block; shape-rendering: auto;" width="280" height="250" preserveAspectRatio="xMidYMid">
<style type="text/css">
  text {
    text-anchor: middle; font-size: 160px; opacity: 0;
  }
</style>
<g style="transform-origin:140px 125px;transform:scale(1)">
<g transform="translate(140,125)">
  <g transform="translate(0,0)"><g class="path" style="transform: scale(0.91); transform-origin: -84.5733px -11.4682px 0px; animation: 1s linear -0.44s infinite normal forwards running breath-a2992112-2ca5-4f76-b52e-0961dc827213;"><path d="M0.32-25.92L1.60-39.68L39.68-99.68L66.08-102.88L63.84-40.96L79.20-41.60L77.60-25.44L64.80-25.76L65.76 0L43.36 0L44.96-26.08L0.32-25.92zM45.28-41.28L44.48-82.24L19.04-41.12L45.28-41.28" fill="#f36100" stroke="none" stroke-width="none" transform="translate(-124.33330535888672,39.97177571614584)" style="fill: rgb(243, 97, 0);"></path></g><g class="path" style="transform: scale(0.91); transform-origin: 7.1067px -11.0682px 0px; animation: 1s linear -0.22s infinite normal forwards running breath-a2992112-2ca5-4f76-b52e-0961dc827213;"><path d="M135.84-103.84L135.84-103.84L135.84-103.84Q152.32-103.84 162.32-90.80L162.32-90.80L162.32-90.80Q172.32-77.76 172.32-56.32L172.32-56.32L172.32-56.32Q172.32-29.28 160.24-13.76L160.24-13.76L160.24-13.76Q148.16 1.76 127.04 1.76L127.04 1.76L127.04 1.76Q110.88 1.76 100.72-11.44L100.72-11.44L100.72-11.44Q90.56-24.64 90.56-45.92L90.56-45.92L90.56-45.92Q90.56-71.36 103.28-87.60L103.28-87.60L103.28-87.60Q116-103.84 135.84-103.84zM132.16-13.92L132.16-13.92L132.16-13.92Q142.40-13.92 146.48-21.76L146.48-21.76L146.48-21.76Q150.56-29.60 150.56-49.60L150.56-49.60L150.56-49.60Q150.56-69.60 146.40-77.68L146.40-77.68L146.40-77.68Q142.24-85.76 131.84-85.76L131.84-85.76L131.84-85.76Q121.44-85.76 116.88-78.16L116.88-78.16L116.88-78.16Q112.32-70.56 112.32-51.76L112.32-51.76L112.32-51.76Q112.32-32.96 117.12-23.44L117.12-23.44L117.12-23.44Q121.92-13.92 132.16-13.92" fill="#f36100" stroke="none" stroke-width="none" transform="translate(-124.33330535888672,39.97177571614584)" style="fill: rgb(250, 144, 47);"></path></g><g class="path" style="transform: scale(0.91); transform-origin: 89.4267px -11.1482px 0px; animation: 1s linear 0s infinite normal forwards running breath-a2992112-2ca5-4f76-b52e-0961dc827213;"><path d="M183.52-79.84L186.88-99.20L186.88-99.20Q200.32-104 213.60-104L213.60-104L213.60-104Q226.88-104 235.36-97.28L235.36-97.28L235.36-97.28Q243.84-90.56 243.84-80.32L243.84-80.32L243.84-80.32Q243.84-72.32 239.68-66.32L239.68-66.32L239.68-66.32Q235.52-60.32 227.84-57.28L227.84-57.28L227.84-57.28Q239.04-53.12 244-46.96L244-46.96L244-46.96Q248.96-40.80 248.96-31.36L248.96-31.36L248.96-31.36Q248.96-16.96 237.84-7.60L237.84-7.60L237.84-7.60Q226.72 1.76 209.60 1.76L209.60 1.76L209.60 1.76Q201.44 1.76 193.68-0.40L193.68-0.40L193.68-0.40Q185.92-2.56 182.24-4.80L182.24-4.80L178.56-7.04L185.28-26.40L185.28-26.40Q186.72-25.12 189.12-23.20L189.12-23.20L189.12-23.20Q191.52-21.28 198.32-18L198.32-18L198.32-18Q205.12-14.72 212-14.72L212-14.72L212-14.72Q218.88-14.72 224-18.48L224-18.48L224-18.48Q229.12-22.24 229.12-29.12L229.12-29.12L229.12-29.12Q229.12-36 223.12-40.48L223.12-40.48L223.12-40.48Q217.12-44.96 206.56-44.96L206.56-44.96L192.80-44.96L195.68-60.48L204.48-60.48L204.48-60.48Q213.28-60.48 218.24-64.48L218.24-64.48L218.24-64.48Q223.20-68.48 223.20-74.72L223.20-74.72L223.20-74.72Q223.20-80.96 219.04-84.40L219.04-84.40L219.04-84.40Q214.88-87.84 209.04-87.84L209.04-87.84L209.04-87.84Q203.20-87.84 197.04-85.84L197.04-85.84L197.04-85.84Q190.88-83.84 183.52-79.84L183.52-79.84" fill="#f36100" stroke="none" stroke-width="none" transform="translate(-124.33330535888672,39.97177571614584)" style="fill: rgb(255, 184, 86);"></path></g></g>
</g>
</g>
<style id="breath-a2992112-2ca5-4f76-b52e-0961dc827213" data-anikit="">@keyframes breath-a2992112-2ca5-4f76-b52e-0961dc827213
{
  0% {
    animation-timing-function: cubic-bezier(0.9647,0.2413,-0.0705,0.7911);
    transform: scale(0.9099999999999999);
  }
  51% {
    animation-timing-function: cubic-bezier(0.9226,0.2631,-0.0308,0.7628);
    transform: scale(1.02994);
  }
  100% {
    transform: scale(0.9099999999999999);
  }
}</style></svg>