<?xml version="1.0" encoding="utf-8"?>
<svg xmlns="http://www.w3.org/2000/svg" style="margin: auto; background: rgba(0, 0, 0, 0) none repeat scroll 0% 0%; display: block; shape-rendering: auto;" width="280" height="250" preserveAspectRatio="xMidYMid">
<style type="text/css">
  text {
    text-anchor: middle; font-size: 160px; opacity: 0;
  }
</style>
<g style="transform-origin:140px 125px;transform:scale(1)">
<g transform="translate(140,125)">
  <g transform="translate(0,0)"><g class="path" style="transform: scale(0.91); transform-origin: -88.6633px -10.5014px 0px; animation: 1s linear -0.44s infinite normal forwards running breath-a2992112-2ca5-4f76-b52e-0961dc827213;"><path d="M73.12-34.24L73.12-34.24L73.12-34.24Q73.12-19.36 61.20-8.80L61.20-8.80L61.20-8.80Q49.28 1.76 32.16 1.76L32.16 1.76L32.16 1.76Q24.16 1.76 16.80-0.24L16.80-0.24L16.80-0.24Q9.44-2.24 6.08-4.16L6.08-4.16L2.72-6.24L9.44-24.96L9.44-24.96Q14.40-21.12 21.84-17.92L21.84-17.92L21.84-17.92Q29.28-14.72 35.76-14.72L35.76-14.72L35.76-14.72Q42.24-14.72 47.36-18.80L47.36-18.80L47.36-18.80Q52.48-22.88 52.48-28.80L52.48-28.80L52.48-28.80Q52.48-43.36 32.96-46.56L32.96-46.56L11.68-50.08L11.68-103.04L39.20-101.12L71.68-102.88L68.16-80.80L27.04-84.48L27.04-65.76L44.48-62.72L44.48-62.72Q57.92-60.32 65.52-52.64L65.52-52.64L65.52-52.64Q73.12-44.96 73.12-34.24" fill="#3c0f0f" stroke="none" stroke-width="none" transform="translate(-126.5833511352539,40.13855529785156)" style="fill: rgb(60, 15, 15);"></path></g><g class="path" style="transform: scale(0.91); transform-origin: -2.98335px -10.9014px 0px; animation: 1s linear -0.22s infinite normal forwards running breath-a2992112-2ca5-4f76-b52e-0961dc827213;"><path d="M128-103.84L128-103.84L128-103.84Q144.48-103.84 154.48-90.80L154.48-90.80L154.48-90.80Q164.48-77.76 164.48-56.32L164.48-56.32L164.48-56.32Q164.48-29.28 152.40-13.76L152.40-13.76L152.40-13.76Q140.32 1.76 119.20 1.76L119.20 1.76L119.20 1.76Q103.04 1.76 92.88-11.44L92.88-11.44L92.88-11.44Q82.72-24.64 82.72-45.92L82.72-45.92L82.72-45.92Q82.72-71.36 95.44-87.60L95.44-87.60L95.44-87.60Q108.16-103.84 128-103.84zM124.32-13.92L124.32-13.92L124.32-13.92Q134.56-13.92 138.64-21.76L138.64-21.76L138.64-21.76Q142.72-29.60 142.72-49.60L142.72-49.60L142.72-49.60Q142.72-69.60 138.56-77.68L138.56-77.68L138.56-77.68Q134.40-85.76 124-85.76L124-85.76L124-85.76Q113.60-85.76 109.04-78.16L109.04-78.16L109.04-78.16Q104.48-70.56 104.48-51.76L104.48-51.76L104.48-51.76Q104.48-32.96 109.28-23.44L109.28-23.44L109.28-23.44Q114.08-13.92 124.32-13.92" fill="#3c0f0f" stroke="none" stroke-width="none" transform="translate(-126.5833511352539,40.13855529785156)" style="fill: rgb(249, 26, 16);"></path></g><g class="path" style="transform: scale(0.91); transform-origin: 88.3767px -10.9014px 0px; animation: 1s linear 0s infinite normal forwards running breath-a2992112-2ca5-4f76-b52e-0961dc827213;"><path d="M219.36-103.84L219.36-103.84L219.36-103.84Q235.84-103.84 245.84-90.80L245.84-90.80L245.84-90.80Q255.84-77.76 255.84-56.32L255.84-56.32L255.84-56.32Q255.84-29.28 243.76-13.76L243.76-13.76L243.76-13.76Q231.68 1.76 210.56 1.76L210.56 1.76L210.56 1.76Q194.40 1.76 184.24-11.44L184.24-11.44L184.24-11.44Q174.08-24.64 174.08-45.92L174.08-45.92L174.08-45.92Q174.08-71.36 186.80-87.60L186.80-87.60L186.80-87.60Q199.52-103.84 219.36-103.84zM215.68-13.92L215.68-13.92L215.68-13.92Q225.92-13.92 230-21.76L230-21.76L230-21.76Q234.08-29.60 234.08-49.60L234.08-49.60L234.08-49.60Q234.08-69.60 229.92-77.68L229.92-77.68L229.92-77.68Q225.76-85.76 215.36-85.76L215.36-85.76L215.36-85.76Q204.96-85.76 200.40-78.16L200.40-78.16L200.40-78.16Q195.84-70.56 195.84-51.76L195.84-51.76L195.84-51.76Q195.84-32.96 200.64-23.44L200.64-23.44L200.64-23.44Q205.44-13.92 215.68-13.92" fill="#3c0f0f" stroke="none" stroke-width="none" transform="translate(-126.5833511352539,40.13855529785156)" style="fill: rgb(228, 107, 67);"></path></g></g>
</g>
</g>
<style id="breath-a2992112-2ca5-4f76-b52e-0961dc827213" data-anikit="">@keyframes breath-a2992112-2ca5-4f76-b52e-0961dc827213
{
  0% {
    animation-timing-function: cubic-bezier(0.9647,0.2413,-0.0705,0.7911);
    transform: scale(0.9099999999999999);
  }
  51% {
    animation-timing-function: cubic-bezier(0.9226,0.2631,-0.0308,0.7628);
    transform: scale(1.02994);
  }
  100% {
    transform: scale(0.9099999999999999);
  }
}</style></svg>